<svg xmlns="http://www.w3.org/2000/svg" width="197" height="300" viewBox="0 0 197 300" version="1.1">
	<path d="M 88.387 0.937 C 46.349 7.609, 11.570 55.196, 2.387 118.606 C 0.050 134.741, 0.050 165.259, 2.387 181.394 C 10.915 240.284, 41.101 285.294, 80 297.126 C 90.560 300.337, 106.440 300.337, 117 297.126 C 150.267 287.008, 177.686 252.257, 189.959 204.660 C 193.175 192.185, 196 173.887, 196 165.525 C 196 162.551, 196.450 159.840, 197 159.500 C 197.559 159.155, 198 154.470, 198 148.882 C 198 142.470, 197.641 139.104, 197 139.500 C 196.379 139.884, 196 138.022, 196 134.593 C 196 126.124, 193.193 107.882, 189.959 95.340 C 177.807 48.210, 150.237 12.993, 117.765 3.122 C 110.093 0.790, 95.944 -0.263, 88.387 0.937 M 84.168 3.533 C 70.250 6.554, 52.302 17.898, 41.393 30.568 C 2.851 75.334, -9.093 154.306, 12.991 218.353 C 25.179 253.699, 44.981 279.189, 69.454 291.035 C 114.210 312.698, 161.914 282.431, 184.009 218.353 C 211.864 137.570, 184.636 36.598, 127.546 8.965 C 113.733 2.279, 98.648 0.390, 84.168 3.533 M 95.160 14.191 C 95.248 18.211, 95.502 20.038, 95.723 18.250 C 96.102 15.202, 96.371 15, 100.063 15 C 103.812 15, 104.006 15.155, 104.125 18.250 C 104.235 21.094, 104.350 20.938, 105.051 17 C 106.176 10.678, 106.161 8, 105 8 C 104.450 8, 104 9.125, 104 10.500 C 104 12.690, 103.567 13, 100.500 13 C 97.456 13, 97 12.682, 97 10.559 C 97 9.216, 96.550 7.840, 96 7.500 C 95.363 7.106, 95.058 9.535, 95.160 14.191 M 80 11 C 77.429 13.571, 77.456 17.039, 80.073 20.365 C 82.563 23.532, 86.209 23.791, 89 21 C 91.153 18.847, 91.615 17, 90 17 C 89.450 17, 89 17.659, 89 18.465 C 89 20.358, 85.607 22.170, 83.545 21.379 C 79.766 19.929, 78.700 12.766, 82 11 C 83.388 10.257, 84.591 10.246, 85.934 10.965 C 88.666 12.427, 89.452 12.250, 88 10.500 C 86.251 8.392, 82.365 8.635, 80 11 M 110.632 14.816 C 108.756 21.500, 108.665 22.325, 109.887 21.570 C 110.374 21.269, 111.067 19.458, 111.425 17.546 C 112.446 12.108, 113.606 12.535, 115.425 19.019 C 116.348 22.309, 117.513 25, 118.013 25 C 118.514 25, 119.423 23.144, 120.033 20.876 C 120.644 18.607, 121.551 15.682, 122.047 14.376 C 122.617 12.877, 122.589 12, 121.971 12 C 121.433 12, 120.451 14.025, 119.789 16.500 C 119.127 18.975, 118.341 20.999, 118.043 20.999 C 117.744 20.998, 116.707 18.298, 115.737 14.999 C 114.768 11.699, 113.590 9, 113.119 9 C 112.649 9, 111.529 11.617, 110.632 14.816 M 66.742 15.914 C 65.226 16.886, 63.711 17.956, 63.376 18.291 C 62.919 18.747, 67.710 27.753, 69.494 29.791 C 69.633 29.950, 71.492 29.082, 73.624 27.860 C 78.486 25.074, 78.442 25.109, 77.793 24.459 C 77.495 24.162, 75.650 24.864, 73.693 26.019 C 70.150 28.109, 70.129 28.109, 69.067 26.125 C 67.610 23.403, 67.610 23.404, 71 22 C 72.650 21.317, 74 20.324, 74 19.795 C 74 19.266, 73.662 18.998, 73.250 19.199 C 72.838 19.400, 71.230 20.199, 69.678 20.975 C 67.238 22.196, 66.733 22.191, 65.944 20.943 C 64.604 18.826, 64.681 18.700, 68.760 16.294 C 70.817 15.081, 71.825 14.102, 71 14.117 C 70.175 14.133, 68.259 14.942, 66.742 15.914 M 126.635 19.073 C 121.660 22.985, 124.025 31, 130.154 31 C 136.012 31, 139.426 21.813, 134.777 18.557 C 131.796 16.468, 129.783 16.596, 126.635 19.073 M 126.557 21.223 C 124.332 24.398, 124.628 26.710, 127.500 28.592 C 129.790 30.092, 130.204 30.096, 132.424 28.642 C 135.438 26.667, 136.448 23.706, 135.020 21.038 C 133.503 18.203, 128.597 18.310, 126.557 21.223 M 54.694 24.100 C 52.662 25.775, 51 27.633, 51 28.228 C 51 28.823, 51.847 28.544, 52.881 27.607 C 54.679 25.981, 54.945 26.118, 58.834 30.667 C 61.072 33.286, 63.235 35.098, 63.640 34.694 C 64.044 34.289, 62.400 31.946, 59.987 29.486 C 55.764 25.184, 55.672 24.961, 57.547 23.589 C 58.620 22.805, 59.248 21.914, 58.943 21.609 C 58.638 21.305, 56.726 22.426, 54.694 24.100 M 139.011 30.489 L 134.605 34.978 137.480 37.979 C 139.061 39.629, 140.576 40.757, 140.848 40.486 C 141.119 40.214, 140.279 38.861, 138.980 37.478 L 136.618 34.965 141.017 30.482 C 143.437 28.017, 144.966 26, 144.416 26 C 143.866 26, 141.434 28.020, 139.011 30.489 M 85.438 29.035 C 77.557 31.534, 68.773 37.273, 61.591 44.617 C 15.436 91.806, 15.436 208.194, 61.591 255.383 C 109.552 304.419, 170 245.658, 170 150 C 170 72.913, 129.548 15.046, 85.438 29.035 M 85.772 33.345 C 53.762 44.254, 31 92.733, 31 150 C 31 207.797, 54.440 257.025, 86.705 266.991 C 128.200 279.807, 166 224.038, 166 150 C 166 92.203, 142.560 42.975, 110.295 33.009 C 101.807 30.388, 94.140 30.493, 85.772 33.345 M 43 35.715 C 43.001 37.020, 53.069 45.264, 53.786 44.547 C 54.153 44.180, 52.664 42.327, 50.477 40.428 C 45.829 36.393, 43 34.609, 43 35.715 M 97.188 37.212 C 96.535 37.865, 96 38.911, 96 39.537 C 96 40.162, 92.239 42.537, 87.642 44.815 C 81.180 48.016, 77.795 50.535, 72.724 55.910 C 69.116 59.734, 64.977 64.889, 63.526 67.366 C 62.074 69.843, 59.337 72.784, 57.443 73.901 C 52.398 76.878, 50.355 81.779, 51.608 87.898 C 52.547 92.482, 52.445 92.938, 49.802 95.895 C 46.783 99.275, 46.408 101.025, 48.048 104.089 C 48.909 105.699, 48.474 106.805, 45.599 110.314 L 42.102 114.581 45.542 117.326 L 48.982 120.071 49.241 171.785 L 49.500 223.500 98.250 223.760 L 147 224.019 147 172.802 L 147 121.584 150.637 117.859 L 154.275 114.134 151.127 110.160 C 148.386 106.700, 148.113 105.833, 149.015 103.461 C 150.318 100.035, 149.559 97.585, 146.435 95.128 C 144.115 93.302, 144.046 92.953, 145.110 88.346 C 146.554 82.087, 144.600 76.877, 139.732 74.004 C 137.880 72.912, 134.213 68.868, 131.582 65.017 C 125.282 55.797, 117.480 48.804, 108.820 44.615 C 104.946 42.741, 101.011 40.042, 100.076 38.616 C 98.763 36.615, 98.105 36.295, 97.188 37.212 M 146.390 38.519 C 143.221 41.688, 143.516 45.571, 147.130 48.257 C 153.434 52.942, 161.553 43.553, 156 38 C 153.279 35.279, 149.422 35.487, 146.390 38.519 M 147.816 40.030 C 145.013 42.833, 144.899 43.217, 146.259 45.277 C 147.067 46.500, 148.824 47.634, 150.166 47.797 C 155.584 48.458, 158.228 39.717, 153.170 37.861 C 151.277 37.166, 150.274 37.572, 147.816 40.030 M 36.539 43.937 C 36.282 44.352, 37.969 47.456, 40.286 50.835 C 42.604 54.214, 44.655 56.519, 44.845 55.956 C 45.034 55.393, 44.666 54.303, 44.028 53.533 C 42.148 51.268, 45.633 46.691, 48.660 47.451 C 49.967 47.779, 51 47.588, 51 47.019 C 51 46.459, 50.438 45.984, 49.750 45.964 C 49.063 45.945, 45.914 45.311, 42.753 44.555 C 39.592 43.800, 36.796 43.521, 36.539 43.937 M 97.176 44.224 C 96.529 44.871, 96 45.903, 96 46.517 C 96 47.132, 93.638 48.396, 90.750 49.327 C 84.098 51.472, 77.203 56.536, 72.037 63.073 C 67.250 69.128, 66.981 70.477, 70.750 69.514 C 88.419 65.002, 103.867 64.472, 118.923 67.864 C 124.106 69.032, 128.567 69.766, 128.836 69.497 C 129.106 69.228, 127.340 66.458, 124.913 63.342 C 119.844 56.835, 111.418 50.660, 105.250 48.931 C 102.912 48.276, 101 47.179, 101 46.492 C 101 44.355, 98.518 42.882, 97.176 44.224 M 39.572 47.470 C 41.466 50.361, 42.801 50.683, 43.655 48.457 C 44.372 46.588, 44.238 46.458, 40.707 45.611 C 37.920 44.942, 37.918 44.946, 39.572 47.470 M 157.400 50.428 C 152.353 52.625, 151.486 57.577, 155.455 61.545 C 158.266 64.357, 158.819 64.453, 161.316 62.560 C 162.876 61.377, 162.948 60.889, 161.825 59.092 C 160.152 56.412, 158.579 56.346, 160.008 59.015 C 160.858 60.603, 160.757 61.156, 159.530 61.627 C 155.239 63.274, 153.224 55.357, 157.223 52.557 C 158.445 51.701, 160.235 51, 161.199 51 C 163.444 51, 166.239 55.215, 165.416 57.359 C 165.066 58.271, 165.278 59, 165.893 59 C 168.177 59, 167.057 53.190, 164.365 51.073 C 161.299 48.661, 161.431 48.673, 157.400 50.428 M 29.137 56.250 C 26.773 59.980, 26.921 60.216, 34.214 64.362 L 38.927 67.042 40.524 63.953 C 42.731 59.686, 42.125 56.587, 39 56.154 C 37.625 55.963, 36.140 55.176, 35.700 54.404 C 34.331 52.001, 31.287 52.857, 29.137 56.250 M 30.241 56.986 C 28.658 59.520, 28.674 59.661, 30.627 60.410 C 32.685 61.200, 35 59.330, 35 56.878 C 35 54.368, 31.831 54.440, 30.241 56.986 M 35.510 59.626 C 34.092 61.789, 34.028 62.403, 35.145 63.110 C 37.483 64.592, 39.003 64.088, 40.215 61.428 C 41.163 59.346, 41.111 58.683, 39.943 57.944 C 37.807 56.592, 37.395 56.749, 35.510 59.626 M 164.500 65.203 C 161.200 66.912, 159.027 68.491, 159.671 68.712 C 161.188 69.233, 171 64.271, 171 62.983 C 171 61.744, 171.526 61.565, 164.500 65.203 M 23 69.288 C 23 71.021, 32.434 80.233, 33.311 79.355 C 33.692 78.974, 33.257 77.836, 32.344 76.827 C 30.992 75.333, 30.894 74.528, 31.820 72.496 C 32.470 71.069, 33.798 70, 34.920 70 C 35.999 70, 37.160 69.550, 37.500 69 C 37.891 68.367, 35.344 68, 30.559 68 C 25.061 68, 23 68.351, 23 69.288 M 89.520 70.077 C 82.226 71.185, 69.859 74.342, 63.452 76.732 C 59.080 78.362, 55.876 81.210, 57.071 82.404 C 57.346 82.679, 61.806 81.576, 66.982 79.953 C 91.715 72.199, 106.210 72.226, 130.214 80.070 C 135.209 81.702, 139.465 82.869, 139.671 82.662 C 140.697 81.636, 138.462 78.972, 135.325 77.484 C 129.947 74.932, 110.354 70.282, 102.500 69.693 C 98.650 69.405, 92.809 69.577, 89.520 70.077 M 164.359 71.550 C 162.381 73.528, 161.955 74.707, 162.459 76.800 C 163.147 79.654, 165.507 82, 167.691 82 C 168.411 82, 169 81.550, 169 81 C 169 80.450, 168.148 80, 167.107 80 C 163.686 80, 162.763 73.733, 165.934 72.035 C 170.946 69.353, 175.750 71.876, 174.572 76.571 C 174.149 78.256, 174.285 78.942, 174.960 78.525 C 176.652 77.479, 176.147 72.443, 174.171 70.655 C 171.484 68.223, 167.305 68.604, 164.359 71.550 M 26.811 72.250 C 28.741 74.176, 29.203 74.284, 30.018 73 C 31.575 70.545, 31.169 70, 27.778 70 L 24.556 70 26.811 72.250 M 20.500 79.029 C 21.600 79.520, 24.188 80.591, 26.250 81.410 C 29.932 82.871, 31.466 86, 28.500 86 C 27.675 86, 27 86.450, 27 87 C 27 88.751, 29.890 88.074, 30.961 86.072 C 32.560 83.085, 31.244 81.271, 26.240 79.566 C 21.230 77.859, 16.993 77.462, 20.500 79.029 M 63 85 C 60.772 87.228, 60.308 91, 62.263 91 C 62.957 91, 63.970 89.987, 64.513 88.750 L 65.500 86.500 98.265 86.236 L 131.030 85.973 132.176 88.486 C 132.806 89.869, 133.924 91, 134.661 91 C 136.679 91, 136.268 87.268, 134 85 C 132.080 83.080, 130.667 83, 98.500 83 C 66.333 83, 64.920 83.080, 63 85 M 166 85.203 C 166 85.641, 167.089 86, 168.421 86 C 171.734 86, 173.135 91.449, 170.346 93.489 C 169.333 94.230, 168.818 95.152, 169.203 95.537 C 169.589 95.922, 172.419 94.088, 175.494 91.461 C 178.569 88.834, 180.728 86.353, 180.292 85.947 C 179.183 84.915, 166 84.228, 166 85.203 M 172.384 87.557 C 172.723 88.441, 173 89.587, 173 90.105 C 173 90.623, 174.125 90.309, 175.500 89.408 C 178.801 87.245, 178.653 86.475, 174.884 86.188 C 172.382 85.997, 171.889 86.268, 172.384 87.557 M 16 87.735 C 16 88.835, 27.738 92.596, 28.571 91.762 C 28.878 91.455, 26.738 90.417, 23.815 89.456 C 20.892 88.495, 17.938 87.501, 17.250 87.247 C 16.563 86.994, 16 87.213, 16 87.735 M 81.687 96.660 C 64.970 106.682, 64.561 106.786, 61.832 101.686 C 61.004 100.140, 61.126 99.509, 62.386 98.804 C 64.213 97.781, 64.521 95.440, 62.956 94.473 C 60.585 93.008, 58.830 96.288, 59.228 101.440 C 59.442 104.223, 59.816 107.149, 60.059 107.941 C 60.330 108.826, 59.054 110.177, 56.753 111.441 C 53.121 113.436, 52.055 115.298, 53.893 116.434 C 54.383 116.737, 63.721 111.757, 74.643 105.368 C 85.564 98.978, 95.483 93.297, 96.684 92.744 C 98.515 91.901, 100.615 92.759, 109.684 98.055 C 115.633 101.529, 125.309 107.181, 131.186 110.615 C 139.964 115.743, 142.076 116.613, 143.010 115.488 C 143.913 114.400, 143.313 113.592, 140.097 111.561 C 136.414 109.236, 136.136 108.773, 137.024 106.437 C 138.491 102.579, 138.200 97.342, 136.419 95.562 C 135.550 94.693, 134.425 94.237, 133.919 94.550 C 132.463 95.450, 132.849 97.816, 134.614 98.804 C 135.874 99.509, 135.996 100.140, 135.168 101.686 C 132.391 106.875, 131.959 106.774, 115.705 97.153 C 107.278 92.165, 99.735 87.881, 98.942 87.632 C 98.149 87.384, 90.384 91.446, 81.687 96.660 M 14.189 93.522 C 14.476 93.809, 17.105 94.822, 20.031 95.772 C 25.914 97.683, 27.355 99.563, 23.913 100.837 C 22.365 101.409, 22.039 101.906, 22.873 102.421 C 24.606 103.493, 27 101.170, 27 98.416 C 27 96.463, 26.145 95.824, 21.818 94.539 C 16.630 92.998, 13.209 92.542, 14.189 93.522 M 175.665 96.507 C 173.006 97.238, 170.615 98.052, 170.351 98.316 C 169.596 99.070, 171.127 106, 172.048 106 C 172.503 106, 172.626 104.469, 172.322 102.597 L 171.770 99.195 177.385 97.938 C 180.473 97.247, 183 96.303, 183 95.841 C 183 94.753, 181.578 94.883, 175.665 96.507 M 95.357 105.513 C 94.694 107.240, 96.627 110, 98.500 110 C 100.415 110, 102.111 107.452, 101.410 105.627 C 100.623 103.576, 96.132 103.492, 95.357 105.513 M 17.687 109.832 C 13.939 110.749, 10.836 111.950, 10.790 112.500 C 10.745 113.050, 13.136 114.961, 16.104 116.746 C 21.870 120.214, 24.923 121.082, 21.318 118.228 C 18.407 115.924, 19.183 111.243, 22.619 110.381 C 23.928 110.052, 25 109.382, 25 108.892 C 25 108.401, 24.887 108.037, 24.750 108.082 C 24.613 108.126, 21.434 108.914, 17.687 109.832 M 14.500 111.916 L 11.500 112.596 14.750 114.324 C 16.538 115.274, 18 115.627, 18 115.107 C 18 114.588, 18.273 113.452, 18.607 112.582 C 19.255 110.893, 19.115 110.871, 14.500 111.916 M 180 112.272 C 172.878 113.457, 170.556 115.450, 177.480 114.434 C 184.250 113.441, 187.613 112.480, 186.460 111.868 C 185.932 111.587, 183.025 111.769, 180 112.272 M 177.750 117.728 C 175.688 117.944, 174 118.559, 174 119.095 C 174 119.680, 176.099 119.829, 179.250 119.468 L 184.500 118.867 179.750 123.038 C 177.137 125.331, 175 127.644, 175 128.176 C 175 129.335, 185.776 128.209, 188 126.818 C 188.980 126.204, 187.593 126.093, 184 126.497 L 178.500 127.116 183.462 122.058 L 188.425 117 184.962 117.168 C 183.058 117.261, 179.813 117.513, 177.750 117.728 M 8.986 121.750 C 8.979 123.263, 8.701 125.513, 8.370 126.750 C 8.008 128.100, 8.213 129, 8.883 129 C 9.498 129, 10 128.056, 10 126.902 C 10 124.922, 10.345 124.844, 16.129 125.515 C 20.531 126.026, 22.064 125.913, 21.570 125.113 C 21.192 124.501, 19.446 123.994, 17.691 123.986 C 12.263 123.963, 10.176 123.042, 10.733 120.914 C 11.008 119.861, 10.731 119, 10.117 119 C 9.502 119, 8.994 120.237, 8.986 121.750 M 54 169.500 L 54 218 98.500 218 L 143 218 143 169.500 L 143 121 98.500 121 L 54 121 54 169.500 M 75 130 C 76.666 133.300, 78.241 136, 78.500 136 C 78.759 136, 80.334 133.300, 82 130 C 84.790 124.474, 84.877 124, 83.112 124 C 81.860 124, 80.785 125.126, 80.011 127.250 L 78.827 130.500 77.232 127.250 C 76.298 125.346, 74.878 124, 73.804 124 C 72.160 124, 72.283 124.617, 75 130 M 88.802 129.250 C 88.526 134.049, 88.307 134.473, 86.250 134.187 C 83.224 133.766, 83.368 135.625, 86.421 136.391 C 90.951 137.528, 92 136.305, 92 129.893 C 92 125.416, 91.652 124, 90.552 124 C 89.511 124, 89.020 125.473, 88.802 129.250 M 99 125 C 99 125.550, 100.125 126, 101.500 126 C 103.833 126, 104 126.333, 104 131 C 104 134.778, 104.367 136, 105.500 136 C 106.633 136, 107 134.778, 107 131 C 107 126.333, 107.167 126, 109.500 126 C 110.875 126, 112 125.550, 112 125 C 112 124.436, 109.167 124, 105.500 124 C 101.833 124, 99 124.436, 99 125 M 116 130 C 116 134.667, 116.333 136, 117.500 136 C 118.667 136, 119 134.667, 119 130 C 119 125.333, 118.667 124, 117.500 124 C 116.333 124, 116 125.333, 116 130 M 61.713 125.621 C 61.321 126.013, 61 145.383, 61 168.667 L 61 211 98 211 L 135 211 135 167.934 L 135 124.867 132.250 125.184 L 129.500 125.500 129.239 166.250 L 128.978 207 98.500 207 L 68.022 207 67.761 166.250 L 67.500 125.500 64.963 125.204 C 63.567 125.041, 62.104 125.229, 61.713 125.621 M 14.250 132.285 C 10.813 133.440, 8 134.891, 8 135.509 C 8 136.826, 19.694 142.639, 20.574 141.759 C 20.903 141.431, 20.233 140.660, 19.086 140.046 C 15.950 138.368, 16.226 133.411, 19.500 132.589 C 20.875 132.244, 22 131.520, 22 130.981 C 22 129.726, 21.723 129.773, 14.250 132.285 M 177.083 132.927 C 175.036 134.223, 175.295 140.011, 177.471 141.603 C 180.086 143.514, 182.779 141.697, 183.568 137.488 C 184.041 134.966, 184.746 134, 186.111 134 C 188.286 134, 188.755 137.845, 186.817 139.783 C 186.166 140.434, 185.905 141.238, 186.237 141.570 C 186.569 141.902, 187.563 141.070, 188.447 139.722 C 190.670 136.328, 189.020 131.716, 185.748 132.181 C 184.086 132.417, 183.145 133.621, 182.139 136.802 C 181.173 139.856, 180.302 141.013, 179.139 140.792 C 176.840 140.354, 176.500 136.210, 178.575 133.918 C 180.378 131.925, 179.543 131.370, 177.083 132.927 M 11.034 134.958 C 9.860 135.700, 10.122 136.096, 12.349 136.943 C 15.993 138.328, 16 138.326, 16 136 C 16 133.854, 13.582 133.346, 11.034 134.958 M 95 135 C 95 135.550, 95.675 136, 96.500 136 C 97.325 136, 98 135.550, 98 135 C 98 134.450, 97.325 134, 96.500 134 C 95.675 134, 95 134.450, 95 135 M 110 135 C 110 135.550, 110.675 136, 111.500 136 C 112.325 136, 113 135.550, 113 135 C 113 134.450, 112.325 134, 111.500 134 C 110.675 134, 110 134.450, 110 135 M 122 135 C 122 135.550, 122.450 136, 123 136 C 123.550 136, 124 135.550, 124 135 C 124 134.450, 123.550 134, 123 134 C 122.450 134, 122 134.450, 122 135 M 72 166.334 C 72 194.286, 72.585 199.483, 75.834 200.377 C 76.750 200.630, 80.200 201.136, 83.500 201.503 C 86.800 201.870, 91.451 203.024, 93.835 204.067 C 97.703 205.759, 98.469 205.809, 100.934 204.534 C 102.453 203.748, 106.802 202.592, 110.598 201.964 C 114.394 201.337, 118.542 200.622, 119.816 200.376 C 124.476 199.476, 125.057 195.470, 124.766 166.243 L 124.500 139.500 98.250 139.233 L 72 138.967 72 166.334 M 0.370 150 C 0.370 155.775, 0.535 158.137, 0.737 155.250 C 0.939 152.363, 0.939 147.637, 0.737 144.750 C 0.535 141.863, 0.370 144.225, 0.370 150 M 116.750 140.737 L 113 141.121 113 146.438 C 113 151.481, 114.714 154.952, 116.382 153.285 C 116.765 152.901, 117.333 153.559, 117.644 154.747 C 117.955 155.935, 119.303 157.624, 120.641 158.501 L 123.074 160.094 122.787 150.378 C 122.625 144.895, 122.064 140.595, 121.500 140.508 C 120.950 140.423, 118.813 140.526, 116.750 140.737 M 77.500 141.892 L 73.500 142.500 73.500 163.204 C 73.500 183.654, 73.525 183.901, 75.574 183.389 C 76.776 183.089, 78.191 183.525, 78.938 184.425 C 79.647 185.279, 80.626 185.731, 81.113 185.430 C 82.568 184.531, 82.128 181.988, 80.002 179.002 L 78.003 176.196 81.252 171.348 C 84.162 167.004, 84.453 165.928, 84.051 161 L 83.603 155.500 82.969 161.500 C 82.357 167.305, 82.331 167.213, 82.168 158.684 C 81.996 149.646, 82.755 146.692, 85.524 145.629 C 86.436 145.279, 86.846 145.441, 86.493 146.011 C 86.157 146.555, 86.584 147, 87.441 147 C 88.298 147, 89 147.675, 89 148.500 C 89 149.325, 88.298 150, 87.441 150 C 86.517 150, 86.173 149.530, 86.595 148.845 C 87.038 148.130, 86.870 147.962, 86.155 148.405 C 84.954 149.146, 84.469 164.135, 85.608 165.274 C 86.843 166.509, 89.727 163.665, 89.339 161.593 C 89.022 159.895, 89.178 159.972, 90.170 162 C 90.843 163.375, 91.500 164.658, 91.630 164.850 C 91.760 165.043, 92.459 164.832, 93.183 164.381 C 95.810 162.747, 102 164.721, 102 167.194 C 102 167.716, 101.293 167.436, 100.429 166.571 C 99.564 165.707, 98.327 165.014, 97.679 165.032 C 97.030 165.049, 97.287 165.661, 98.250 166.392 C 99.213 167.123, 99.948 168.796, 99.884 170.110 C 99.802 171.805, 99.635 171.991, 99.311 170.750 C 98.324 166.974, 97.002 169.296, 97.032 174.750 C 97.059 179.746, 97.238 180.271, 98.392 178.750 C 99.123 177.787, 100.431 177, 101.300 177 C 102.332 177, 103.020 175.873, 103.286 173.750 C 103.623 171.062, 103.687 171.199, 103.658 174.541 C 103.611 179.977, 104.851 181.932, 106.389 178.847 C 107.028 177.566, 108.360 176.362, 109.350 176.171 C 110.943 175.864, 111.072 176.338, 110.474 180.324 C 109.877 184.305, 110.053 184.958, 112.006 186.003 C 113.765 186.945, 114.095 187.774, 113.632 190.092 C 113.312 191.691, 113.441 193, 113.920 193 C 115.385 193, 115.719 184.942, 114.287 184.141 C 113.086 183.468, 112.123 171.144, 112.031 155.250 C 112.014 152.363, 111.550 150, 111 150 C 110.397 150, 110 154.167, 110 160.500 C 110 168.803, 109.709 171, 108.609 171 C 107.184 171, 103.485 163.182, 104.452 162.215 C 104.746 161.920, 104.203 161.135, 103.244 160.469 C 101.089 158.973, 95.030 159.758, 94.314 161.625 C 93.461 163.846, 92 163.203, 92 160.607 C 92 158.054, 94.544 156.310, 95.356 158.306 C 95.624 158.963, 95.878 156.463, 95.921 152.750 L 96 146 102.750 145.820 C 108.353 145.670, 108.693 145.576, 104.750 145.265 C 100.840 144.957, 100 144.547, 100 142.945 C 100 141.148, 99.295 141.011, 90.750 141.142 C 85.662 141.220, 79.700 141.557, 77.500 141.892 M 105.250 141.800 C 99.586 142.220, 99.789 144, 105.500 144 C 109.376 144, 110 144.285, 110 146.059 C 110 147.191, 110.390 147.877, 110.866 147.583 C 111.794 147.009, 111.181 142.132, 110.131 141.728 C 109.784 141.595, 107.588 141.627, 105.250 141.800 M 8.250 144.662 C 5.755 145.669, 7.111 146.933, 12.513 148.636 C 15.545 149.592, 17.683 150.665, 17.263 151.022 C 16.843 151.378, 14.362 152.456, 11.750 153.417 C 7.284 155.061, 6.016 156.300, 7.750 157.326 C 8.162 157.570, 11.425 157.433, 15 157.022 L 21.500 156.274 15.500 156.054 L 9.500 155.835 15.250 153.673 C 18.413 152.485, 21 151.210, 21 150.840 C 21 150.469, 18.412 149.265, 15.250 148.162 L 9.500 146.158 15.250 146.079 C 18.413 146.036, 21 145.550, 21 145 C 21 143.992, 10.595 143.716, 8.250 144.662 M 187.820 146.250 C 187.540 148.219, 186.751 148.573, 181.500 149.082 L 175.500 149.664 181.750 149.832 C 187.212 149.979, 188 150.245, 188 151.941 C 188 153.009, 188.450 154.160, 189 154.500 C 189.621 154.884, 190 153.010, 190 149.559 C 190 144.127, 188.454 141.781, 187.820 146.250 M 92 152.755 C 92 153.305, 92.675 154.315, 93.500 155 C 94.337 155.694, 95 155.803, 95 155.245 C 95 154.695, 94.325 153.685, 93.500 153 C 92.663 152.306, 92 152.197, 92 152.755 M 89.081 154.849 C 87.448 157.901, 87.786 158.751, 89.602 156.158 C 90.483 154.900, 90.970 153.636, 90.683 153.350 C 90.396 153.063, 89.676 153.738, 89.081 154.849 M 113.341 158.445 C 113.703 159.390, 114 165.302, 114 171.582 C 114 178.748, 114.384 183, 115.030 183 C 115.697 183, 115.961 178.537, 115.780 170.332 C 115.563 160.506, 115.184 157.559, 114.091 157.195 C 113.101 156.867, 112.878 157.239, 113.341 158.445 M 179.500 159.057 C 185.087 160.213, 190 160.186, 190 159 C 190 158.415, 186.993 158.048, 182.750 158.115 C 176.221 158.219, 175.898 158.312, 179.500 159.057 M 17.892 161.895 C 15.675 163.697, 15.368 163.721, 13.691 162.212 C 10.839 159.645, 8.561 161.776, 8.195 167.352 L 7.890 172 12.695 171.900 C 15.338 171.845, 18.625 171.440, 20 171 C 22.369 170.241, 22.329 170.194, 19.250 170.100 C 16.507 170.016, 16 169.623, 16 167.583 C 16 166.100, 17.061 164.394, 18.748 163.165 C 20.260 162.064, 21.223 160.890, 20.890 160.556 C 20.556 160.223, 19.207 160.825, 17.892 161.895 M 122 162.059 C 122 162.641, 121.550 162.840, 121 162.500 C 120.353 162.100, 120 166.462, 120 174.858 C 120 181.994, 119.592 187.983, 119.093 188.167 C 118.593 188.350, 119.268 189.309, 120.593 190.297 L 123 192.093 123 176.547 C 123 167.996, 122.775 161, 122.500 161 C 122.225 161, 122 161.477, 122 162.059 M 188 164.629 C 188 167.251, 187.984 167.257, 182 166.580 C 178.046 166.132, 176 166.259, 176 166.950 C 176 167.528, 177.988 168, 180.418 168 C 186.313 168, 187.890 168.705, 187.273 171.065 C 186.994 172.129, 187.269 173, 187.883 173 C 188.570 173, 189 170.883, 189 167.500 C 189 164.475, 188.775 162, 188.500 162 C 188.225 162, 188 163.183, 188 164.629 M 9.701 163.632 C 9.316 164.018, 9 165.608, 9 167.167 C 9 169.541, 9.415 170, 11.563 170 C 13.852 170, 14.093 169.652, 13.813 166.758 C 13.515 163.667, 11.329 162.005, 9.701 163.632 M 85 169 C 85 169.550, 85.702 170, 86.559 170 C 87.416 170, 87.840 169.550, 87.500 169 C 87.160 168.450, 86.459 168, 85.941 168 C 85.423 168, 85 168.450, 85 169 M 91.252 171.500 C 91.263 173.700, 91.468 174.482, 91.707 173.238 C 91.946 171.994, 91.937 170.194, 91.687 169.238 C 91.437 168.282, 91.241 169.300, 91.252 171.500 M 94.810 172.500 C 95.035 174.425, 95.395 176, 95.609 176 C 95.824 176, 96 174.425, 96 172.500 C 96 170.575, 95.640 169, 95.201 169 C 94.761 169, 94.585 170.575, 94.810 172.500 M 80.285 174.915 C 79.328 176.447, 79.380 177.071, 80.545 178.037 C 81.766 179.050, 82 178.742, 82 176.122 C 82 172.465, 81.871 172.375, 80.285 174.915 M 21.202 178 C 21.463 181.942, 21.236 182.538, 19.371 182.804 C 17.629 183.052, 17.096 182.418, 16.431 179.304 L 15.620 175.500 15.060 179.490 C 14.256 185.218, 11.492 185.480, 10.602 179.914 C 10.235 177.614, 9.669 175.997, 9.346 176.320 C 9.023 176.643, 9.059 178.906, 9.425 181.348 C 9.945 184.813, 10.465 185.714, 11.795 185.447 C 12.733 185.258, 15.637 184.828, 18.250 184.491 C 22.951 183.884, 23 183.839, 22.985 180.189 C 22.976 178.160, 22.504 175.825, 21.936 175 C 21.171 173.889, 20.981 174.667, 21.202 178 M 175.200 176.200 C 174.540 176.860, 174 178.896, 174 180.725 C 174 183.260, 174.535 184.247, 176.250 184.881 C 179.690 186.152, 187 186.912, 187 185.999 C 187 185.553, 184.773 184.881, 182.050 184.507 C 176.453 183.737, 174.520 182.088, 175.521 178.935 C 176.143 176.973, 176.749 176.814, 182.103 177.201 C 188.647 177.674, 190.112 176.611, 184.250 175.642 C 178.714 174.727, 176.539 174.861, 175.200 176.200 M 86.459 178.067 C 85.383 179.808, 86.608 180.177, 87.980 178.524 C 88.769 177.574, 88.845 177, 88.181 177 C 87.597 177, 86.821 177.480, 86.459 178.067 M 106.615 180.465 C 104.642 183.475, 104.608 184, 106.383 184 C 107.144 184, 108.045 183.213, 108.384 182.250 C 108.724 181.287, 109.263 179.938, 109.584 179.250 C 110.643 176.978, 108.261 177.952, 106.615 180.465 M 94.229 184.188 C 94.846 186.039, 96.690 186.249, 97.345 184.542 C 97.760 183.461, 97.323 183, 95.885 183 C 94.746 183, 94.009 183.528, 94.229 184.188 M 89.969 185.537 C 88.588 187.202, 86 187.504, 86 186 C 86 184.627, 82.662 184.738, 81.242 186.158 C 80.366 187.034, 79.714 187.007, 78.555 186.046 C 76.758 184.554, 74 185.332, 74 187.330 C 74 188.268, 74.798 188.570, 76.446 188.255 C 79.236 187.722, 85 191.302, 85 193.568 C 85 195.541, 82.129 195.360, 77.711 193.108 L 74 191.216 74 193.536 C 74 198.110, 77.431 199.890, 87 200.277 C 90.580 200.422, 93.177 201.111, 94.439 202.250 C 96.900 204.472, 98.878 204.434, 101.906 202.106 C 104.131 200.395, 104.264 199.798, 103.673 194.145 C 102.909 186.839, 100.271 183.157, 97.667 185.761 C 96.271 187.158, 95.879 187.151, 93.652 185.691 C 91.493 184.277, 91.031 184.258, 89.969 185.537 M 105.667 185.667 C 104.698 186.635, 104.849 191.789, 105.864 192.416 C 106.339 192.709, 106.727 191.161, 106.727 188.975 C 106.727 184.739, 106.695 184.638, 105.667 185.667 M 91.272 190 C 91.272 192.475, 91.467 193.488, 91.706 192.250 C 91.944 191.012, 91.944 188.988, 91.706 187.750 C 91.467 186.512, 91.272 187.525, 91.272 190 M 23.507 191.250 C 24.092 195.761, 24.002 196, 21.738 196 C 19.850 196, 19.116 195.218, 18.219 192.250 L 17.085 188.500 17.555 192.750 C 17.996 196.746, 17.874 197, 15.512 197 C 13.578 197, 12.996 196.482, 12.985 194.750 C 12.976 193.512, 12.500 191.825, 11.926 191 C 11.170 189.914, 11.068 190.743, 11.555 194 C 11.926 196.475, 12.382 198.667, 12.569 198.872 C 12.757 199.076, 15.820 198.694, 19.376 198.023 L 25.842 196.803 25.285 193.152 C 24.411 187.418, 22.785 185.679, 23.507 191.250 M 94.500 191.066 L 92.500 191.859 94.500 191.945 C 95.674 191.995, 96.057 192.334, 95.427 192.765 C 94.837 193.169, 94.026 194.400, 93.626 195.500 C 92.928 197.417, 92.987 197.412, 95.046 195.375 C 97.732 192.718, 97.378 189.925, 94.500 191.066 M 184.494 192.018 C 183.789 194.242, 182.412 194.283, 174.250 192.323 C 173.012 192.026, 172 192.231, 172 192.778 C 172 193.325, 174.083 194.085, 176.628 194.467 C 183.067 195.432, 183.850 195.857, 183.273 198.065 C 182.994 199.129, 183.208 200, 183.747 200 C 184.287 200, 185.016 197.901, 185.367 195.337 C 186.060 190.285, 185.600 188.535, 184.494 192.018 M 116.500 192 C 116.840 192.550, 117.316 193, 117.559 193 C 117.802 193, 118 192.550, 118 192 C 118 191.450, 117.523 191, 116.941 191 C 116.359 191, 116.160 191.450, 116.500 192 M 98.638 194.500 C 98.997 195.435, 98.631 196, 97.666 196 C 95.903 196, 94.471 197.805, 95.454 198.788 C 95.814 199.148, 96.569 198.780, 97.131 197.971 C 97.931 196.819, 98.265 196.780, 98.673 197.792 C 99.074 198.784, 99.520 198.813, 100.597 197.919 C 102.721 196.157, 102.358 193, 100.031 193 C 98.692 193, 98.247 193.480, 98.638 194.500 M 120.250 193.780 C 117.841 194.164, 117.561 194.759, 118.839 196.774 C 119.456 197.746, 120.081 197.567, 121.484 196.018 C 123.600 193.680, 123.379 193.280, 120.250 193.780 M 105.384 195.442 C 105.080 196.234, 104.989 197.697, 105.183 198.692 C 105.481 200.225, 106.367 200.448, 111.017 200.160 C 117.318 199.769, 118.592 198.975, 117.175 196.326 C 116.017 194.163, 111.935 193.504, 110.796 195.296 C 110.208 196.221, 110.027 196.211, 110.015 195.250 C 109.994 193.513, 106.062 193.676, 105.384 195.442 M 169.005 203.982 C 168.388 206.274, 168.073 208.678, 168.306 209.324 C 168.538 209.971, 169.257 208.588, 169.903 206.250 C 171.052 202.090, 172.252 201.238, 174.737 202.816 C 175.653 203.398, 175.718 204.496, 174.987 207.045 C 173.787 211.229, 173.787 211.250, 174.871 210.580 C 175.350 210.284, 176.014 208.682, 176.346 207.021 C 176.792 204.790, 177.509 204, 179.089 204 C 181.063 204, 181.178 204.365, 180.589 208.750 C 179.848 214.261, 181.407 212.689, 182.508 206.815 C 183.185 203.199, 183.127 203.112, 179.349 202.121 C 169.497 199.536, 170.238 199.403, 169.005 203.982 M 13.447 202.914 C 13.816 203.511, 15.385 204, 16.934 204 C 18.483 204, 21.174 204.285, 22.914 204.633 L 26.079 205.266 21.039 208.659 C 18.268 210.526, 16 212.520, 16 213.090 C 16 213.661, 18.700 212.234, 22 209.919 C 28.362 205.456, 29.059 204.428, 26.250 203.649 C 21.690 202.384, 12.804 201.874, 13.447 202.914 M 66.250 229.662 C 65.515 229.959, 65 231.986, 65 234.583 L 65 239 68.750 238.882 C 72.292 238.770, 72.338 238.728, 69.582 238.132 C 65.797 237.312, 64.937 235, 68.417 235 C 69.838 235, 71 234.550, 71 234 C 71 233.450, 69.875 233, 68.500 233 C 67.125 233, 66 232.550, 66 232 C 66 231.450, 67.377 231, 69.059 231 C 70.844 231, 71.861 230.583, 71.500 230 C 70.855 228.956, 68.392 228.798, 66.250 229.662 M 75.250 229.662 C 72.995 230.572, 73.845 233.923, 76.500 234.589 C 77.875 234.934, 79 235.591, 79 236.049 C 79 237.553, 76.849 238.249, 75.713 237.113 C 74.013 235.413, 72.579 235.788, 74.042 237.551 C 74.758 238.413, 76.476 238.968, 77.914 238.801 C 81.223 238.416, 81.424 235.020, 78.232 233.428 C 74.417 231.526, 74.323 230.681, 78 231.339 C 81.248 231.920, 81.360 231.858, 79.559 230.482 C 77.507 228.915, 77.231 228.863, 75.250 229.662 M 82.428 230.116 C 82.128 230.602, 82.584 231, 83.441 231 C 84.593 231, 85 232.044, 85 235 C 85 237.200, 85.450 239, 86 239 C 86.550 239, 87 237.200, 87 235 C 87 231.933, 87.389 231, 88.667 231 C 89.583 231, 90.002 230.669, 89.598 230.264 C 88.526 229.193, 83.068 229.080, 82.428 230.116 M 92.250 229.672 C 91.513 229.964, 91 231.980, 91 234.583 C 91 238.754, 91.156 239, 93.800 239 C 95.340 239, 97.140 238.460, 97.800 237.800 C 99.136 236.464, 99.364 233.098, 98.235 231.385 C 97.316 229.991, 93.910 229.016, 92.250 229.672 M 113.326 229.820 C 112.739 230.194, 112.313 232.300, 112.379 234.500 C 112.487 238.068, 112.770 238.500, 115 238.500 C 117.208 238.500, 117.512 238.058, 117.607 234.709 C 117.716 230.837, 115.571 228.388, 113.326 229.820 M 121.308 229.843 C 120.079 230.642, 119.014 235.872, 119.710 237.687 C 120.355 239.367, 123.436 239.385, 124.820 237.716 C 125.418 236.996, 125.526 235.851, 125.065 235.106 C 124.614 234.376, 124.451 232.990, 124.703 232.027 C 125.191 230.161, 122.992 228.747, 121.308 229.843 M 106.250 230.662 C 105.563 230.940, 105 231.606, 105 232.142 C 105 232.679, 105.450 232.840, 106 232.500 C 106.595 232.132, 107 233.323, 107 235.441 C 107 237.398, 107.450 239, 108 239 C 108.550 239, 109 236.975, 109 234.500 C 109 230.063, 108.717 229.667, 106.250 230.662 M 128.674 230.696 C 130.744 231.099, 130.780 231.282, 129.424 234.527 C 127.732 238.578, 127.692 239, 129 239 C 129.550 239, 130 238.186, 130 237.191 C 130 236.196, 130.661 234.509, 131.468 233.441 C 133.644 230.564, 133.343 229.986, 129.750 230.136 C 127.536 230.229, 127.193 230.407, 128.674 230.696 M 93 234.427 C 93 238.100, 93.518 238.592, 95.837 237.122 C 97.686 235.950, 96.888 231.594, 94.750 231.187 C 93.348 230.920, 93 231.563, 93 234.427 M 114 232 C 114 232.550, 114.450 233, 115 233 C 115.550 233, 116 232.550, 116 232 C 116 231.450, 115.550 231, 115 231 C 114.450 231, 114 231.450, 114 232 M 121 232 C 121 232.550, 121.675 233, 122.500 233 C 123.325 233, 124 232.550, 124 232 C 124 231.450, 123.325 231, 122.500 231 C 121.675 231, 121 231.450, 121 232 M 113.694 235.639 C 112.895 236.438, 113.798 238, 115.059 238 C 115.577 238, 116 237.325, 116 236.500 C 116 234.954, 114.820 234.513, 113.694 235.639 M 121.192 236.075 C 121.389 236.666, 121.977 237.150, 122.500 237.150 C 123.023 237.150, 123.611 236.666, 123.808 236.075 C 124.005 235.484, 123.417 235, 122.500 235 C 121.583 235, 120.995 235.484, 121.192 236.075 M 47.276 250.960 C 40.459 256.533, 38.807 258.140, 39.341 258.674 C 39.666 259, 41.539 257.856, 43.501 256.133 C 45.464 254.410, 47.322 253, 47.630 253 C 47.938 253, 46.983 255.060, 45.507 257.579 C 44.031 260.097, 43.064 262.397, 43.358 262.691 C 43.651 262.985, 46.017 262.501, 48.615 261.615 C 51.213 260.730, 53.476 260.142, 53.643 260.309 C 53.810 260.476, 52.132 262.007, 49.915 263.712 C 47.698 265.416, 46.259 267.042, 46.718 267.326 C 47.839 268.019, 57.689 259.383, 56.804 258.483 C 56.422 258.094, 53.979 258.501, 51.376 259.388 C 48.773 260.274, 46.278 261, 45.831 261 C 45.384 261, 46.423 258.718, 48.139 255.929 C 51.473 250.510, 51.019 247.900, 47.276 250.960 M 146.039 250.928 C 144.778 253.283, 145.603 255.717, 148.118 257.063 C 150.438 258.305, 154 256.657, 154 254.342 C 154 253.045, 154.274 252.982, 155.500 254 C 157.608 255.750, 157.365 258.092, 155.011 258.707 C 153.917 258.993, 153.270 259.627, 153.572 260.116 C 154.553 261.703, 158 259.006, 158 256.652 C 158 251.175, 148.372 246.567, 146.039 250.928 M 147.701 250.632 C 146.265 252.069, 147.070 254.887, 149.101 255.532 C 151.931 256.430, 153.818 254.521, 152.370 252.222 C 151.183 250.337, 148.806 249.527, 147.701 250.632 M 141.116 260.250 C 141.180 262.038, 141.438 262.712, 141.689 261.750 C 142.300 259.412, 142.673 259.505, 146.653 263 C 148.532 264.650, 150.604 266, 151.257 266 C 152.493 266, 143.070 257.124, 141.750 257.045 C 141.338 257.020, 141.052 258.462, 141.116 260.250 M 55.369 263.603 C 50.838 269.424, 50.690 269.878, 52.437 272.544 C 54.914 276.325, 59.235 275.869, 62.589 271.473 C 66.400 266.475, 66.685 267.857, 63.058 273.752 C 59.884 278.910, 59.482 280, 60.752 280 C 61.165 280, 62.582 277.967, 63.900 275.482 C 65.219 272.997, 66.465 271.131, 66.669 271.336 C 66.874 271.541, 66.538 274.055, 65.923 276.923 C 65.308 279.791, 65.062 282.395, 65.376 282.709 C 65.690 283.023, 67.760 281.642, 69.976 279.640 C 72.193 277.638, 74.248 276, 74.545 276 C 74.842 276, 73.898 278.025, 72.447 280.500 C 70.997 282.975, 70.295 285, 70.888 285 C 71.481 285, 73.129 282.705, 74.550 279.901 C 75.972 277.096, 77.330 274.997, 77.570 275.236 C 77.809 275.476, 77.122 278.239, 76.043 281.376 L 74.080 287.080 76.731 288.088 C 78.189 288.642, 80.534 288.962, 81.941 288.798 C 84.137 288.542, 84.479 288.039, 84.353 285.250 C 84.271 283.462, 84.639 282, 85.169 282 C 85.699 282, 85.990 280.774, 85.816 279.275 C 85.556 277.036, 84.641 276.233, 80.672 274.764 L 75.844 272.977 71.749 276.483 C 69.497 278.410, 67.463 279.797, 67.230 279.563 C 66.996 279.329, 67.306 276.800, 67.919 273.942 C 68.905 269.344, 68.830 268.594, 67.267 267.434 C 65.719 266.286, 64.970 266.640, 61.227 270.292 C 57.713 273.721, 56.648 274.268, 55.227 273.373 C 52.371 271.575, 52.632 268.975, 56.019 265.481 C 57.782 263.662, 59.039 261.618, 58.813 260.939 C 58.578 260.234, 57.103 261.374, 55.369 263.603 M 133.200 264.200 C 131.742 265.658, 131.629 268.653, 133 269.500 C 133.550 269.840, 134 270.611, 134 271.214 C 134 271.817, 133.137 271.529, 132.082 270.575 C 129.501 268.239, 125.590 268.867, 125.189 271.682 C 124.790 274.490, 127.450 279.635, 130.010 281.006 C 132.783 282.490, 136 280.620, 136 277.524 C 136 276.201, 135.550 274.840, 135 274.500 C 134.450 274.160, 134 273.389, 134 272.786 C 134 272.155, 134.742 272.336, 135.750 273.215 C 138.228 275.373, 140.228 275.870, 142.250 274.830 C 144.942 273.445, 144.343 269.497, 140.923 266.077 C 137.671 262.825, 135.180 262.220, 133.200 264.200 M 134 266.865 C 134 269.550, 137.807 274, 140.104 274 C 143.353 274, 143.512 271.144, 140.443 267.940 C 137.225 264.581, 134 264.043, 134 266.865 M 126.400 271.401 C 125.450 273.877, 129.855 280.165, 132.287 279.804 C 135.245 279.367, 135.362 277.833, 132.738 273.939 C 130.190 270.157, 127.318 269.008, 126.400 271.401 M 117.571 274.571 C 115.622 276.521, 115.622 277.015, 117.578 281.903 C 119.259 286.105, 121.138 287.408, 124.141 286.455 C 128.631 285.030, 124.473 273, 119.490 273 C 119.299 273, 118.436 273.707, 117.571 274.571 M 118 277.865 C 118 281.385, 121.508 286.126, 123.537 285.348 C 126.728 284.123, 123.587 275, 119.974 275 C 118.468 275, 118 275.679, 118 277.865 M 78.733 277.914 C 78.095 280.353, 78.697 281, 81.608 281 C 86.007 281, 85.844 277.931, 81.374 276.584 C 79.785 276.106, 79.118 276.441, 78.733 277.914 M 110.484 279.692 C 109.636 281.722, 108.695 284.366, 108.394 285.568 C 107.912 287.487, 108.171 287.690, 110.529 287.239 C 112.190 286.922, 113.533 287.244, 114.052 288.084 C 115.043 289.688, 115.499 289.321, 116.483 286.125 C 116.941 284.637, 116.844 283.979, 116.223 284.362 C 115.671 284.703, 114.729 282.982, 114.101 280.488 C 113.480 278.019, 112.759 276, 112.499 276 C 112.239 276, 111.333 277.661, 110.484 279.692 M 90.760 280.250 C 87.777 284.813, 84.988 291, 85.912 291 C 86.436 291, 87.151 290.100, 87.500 289 C 88.482 285.905, 93.767 286.257, 95 289.500 C 96.347 293.043, 97.370 292.602, 96.611 288.804 C 95.315 282.324, 93.900 278, 93.076 278 C 92.611 278, 91.568 279.012, 90.760 280.250 M 99.118 282.250 C 99.183 284.587, 99.580 287.850, 100 289.500 C 100.574 291.757, 100.793 290.705, 100.882 285.250 C 100.951 281.004, 100.586 278, 100 278 C 99.450 278, 99.053 279.913, 99.118 282.250 M 91.173 282.519 C 89.635 285.896, 89.659 286, 92 286 C 94.083 286, 94.665 283.597, 93.158 281.222 C 92.571 280.296, 92.023 280.655, 91.173 282.519 M 110.560 282.618 C 109.796 285.662, 110.144 286.266, 112.209 285.473 C 113.175 285.103, 113.538 284.034, 113.235 282.450 C 112.624 279.250, 111.385 279.328, 110.560 282.618 M 76.696 284.055 C 75.976 286.806, 80.609 288.820, 82.745 286.684 C 83.942 285.486, 83.907 285.050, 82.500 283.643 C 80.236 281.379, 77.342 281.584, 76.696 284.055" stroke="none" fill="#000000" fill-rule="evenodd"/>
</svg>